<svg width="1705" height="1892" viewBox="0 0 1705 1892" fill="none" xmlns="http://www.w3.org/2000/svg">
<path d="M1129.88 496.408C1156.94 563.461 1141 627 1087.49 676.501C1051.43 714.267 1004.93 732.593 953.038 728.14C940.192 727.055 927.489 725.885 914.929 724.629C906.708 702.534 888.525 689.889 860.379 686.692C776.198 677.015 731.239 735.333 679.087 777.552C543.01 887.766 344.591 885.625 201.407 796.563C-27.4993 654.321 -61.7539 346.886 108.577 144.956C232.15 -1.48253 445.984 -39.5908 615.031 42.6201C709.516 88.6354 779.11 159.514 823.812 255.255C851.558 314.858 866.802 347.514 869.542 353.224C903.283 424.473 956.748 465.835 1029.94 477.311C1080.81 485.36 1114.12 491.726 1129.88 496.408Z" fill="#1B252D"/>
<path d="M1156.42 1395.42C1175.09 1333.02 1162.19 1277.41 1117.72 1228.6C1080.21 1187.55 1035.19 1157.43 982.667 1138.25C956.634 1128.78 931.057 1119.07 905.937 1109.14C916.67 1079.96 923.607 1046.36 926.747 1008.34C930.515 962.555 931.257 927.016 928.974 901.725C924.806 855.88 919.611 810.122 913.388 764.45C914.929 724.628 912.988 744.382 914.929 724.628C927.489 725.884 940.192 727.055 953.037 728.14C1004.93 732.593 1051.43 714.267 1087.49 676.501C1138.1 623.492 1156.94 563.461 1129.88 496.408C1192.85 492.24 1252.56 494.809 1309.03 504.115C1559.09 545.306 1742.78 762.565 1697.05 1018.96C1667.67 1183.81 1555.15 1312.87 1398.52 1368.87C1329.38 1393.59 1248.68 1402.44 1156.42 1395.42Z" fill="#72A8DB"/>
<path d="M905.938 1109.14C931.058 1119.07 956.635 1128.78 982.668 1138.25C1035.19 1157.44 1080.21 1187.55 1117.72 1228.6C1162.19 1277.41 1175.09 1333.02 1156.42 1395.42C1055.89 1422.48 910.134 1394.65 869.714 1524.64C853.157 1577.85 838.371 1617.27 825.354 1642.91C767.521 1757.38 681.228 1833.14 566.475 1870.19C299.718 1956.34 20.9713 1778.21 1.1037 1495.87C-12.4268 1304.04 99.5855 1132.86 274.541 1062.98C377.761 1021.76 482.323 1019.9 588.227 1057.41C681.228 1090.3 761.041 1172.68 865.432 1140.14C881.532 1135.11 895.034 1124.78 905.938 1109.14Z" fill="#1B252D"/>
</svg>
