<svg width="32" height="32" viewBox="0 0 32 32" fill="none" xmlns="http://www.w3.org/2000/svg">
<path d="M15.625 18.9062C17.4372 18.9062 18.9062 17.4372 18.9062 15.625C18.9062 13.8128 17.4372 12.3438 15.625 12.3438C13.8128 12.3438 12.3438 13.8128 12.3438 15.625C12.3438 17.4372 13.8128 18.9062 15.625 18.9062Z" fill="black"/>
<path d="M15.625 0C6.99556 0 0 6.99556 0 15.625C0 24.2544 6.99556 31.25 15.625 31.25C24.2544 31.25 31.25 24.2544 31.25 15.625C31.25 6.99556 24.2544 0 15.625 0ZM25.2786 19.5963C25.2036 21.0818 24.7862 22.5466 23.7036 23.6177C22.6106 24.6989 21.1388 25.1018 19.6389 25.1761H11.6111C10.1111 25.1018 8.6395 24.6992 7.54644 23.6177C6.46381 22.5466 6.04644 21.0818 5.97144 19.5963V11.6538C6.04644 10.1683 6.46387 8.70337 7.54644 7.63225C8.6395 6.551 10.1113 6.14812 11.6111 6.07394H19.6389C21.1389 6.14812 22.6105 6.55081 23.7036 7.63225C24.7862 8.70337 25.2036 10.1683 25.2786 11.6538L25.2786 19.5963Z" fill="black"/>
<path d="M19.5374 7.8836C17.582 7.82998 13.6683 7.82998 11.7129 7.8836C10.6954 7.91154 9.54179 8.16485 8.81679 8.93923C8.06341 9.74417 7.77873 10.7167 7.74985 11.8046C7.6991 13.7141 7.74985 19.4454 7.74985 19.4454C7.78291 20.5332 8.06341 21.5058 8.81679 22.3107C9.54179 23.0854 10.6954 23.3384 11.7129 23.3664C13.6683 23.42 17.582 23.42 19.5374 23.3664C20.555 23.3384 21.7085 23.0851 22.4335 22.3107C23.1869 21.5058 23.4716 20.5333 23.5005 19.4454V11.8046C23.4716 10.7167 23.1869 9.74417 22.4335 8.93923C21.7083 8.1646 20.5547 7.91154 19.5374 7.8836ZM15.6249 20.7109C14.619 20.7109 13.6357 20.4126 12.7993 19.8538C11.9629 19.2949 11.3111 18.5006 10.9261 17.5713C10.5412 16.6419 10.4405 15.6193 10.6367 14.6328C10.8329 13.6462 11.3173 12.74 12.0286 12.0287C12.7399 11.3174 13.6461 10.833 14.6327 10.6368C15.6193 10.4405 16.6419 10.5412 17.5712 10.9262C18.5006 11.3111 19.2949 11.963 19.8537 12.7994C20.4126 13.6358 20.7108 14.6191 20.7108 15.625C20.7108 16.9739 20.175 18.2675 19.2212 19.2213C18.2674 20.1751 16.9738 20.7109 15.6249 20.7109ZM20.7325 11.5889C20.5313 11.5888 20.3347 11.5291 20.1674 11.4173C20.0002 11.3055 19.8698 11.1466 19.7929 10.9608C19.7159 10.7749 19.6958 10.5704 19.7351 10.3731C19.7744 10.1758 19.8713 9.99455 20.0136 9.85232C20.1558 9.71009 20.3371 9.61323 20.5344 9.574C20.7317 9.53478 20.9362 9.55493 21.122 9.63193C21.3079 9.70893 21.4667 9.8393 21.5785 10.0066C21.6903 10.1738 21.7499 10.3705 21.7499 10.5717C21.7499 10.7053 21.7236 10.8376 21.6725 10.961C21.6213 11.0844 21.5464 11.1966 21.4519 11.291C21.3574 11.3855 21.2453 11.4604 21.1218 11.5115C20.9984 11.5626 20.8661 11.5889 20.7325 11.5889Z" fill="black"/>
</svg>
