<svg width="960" height="1066" viewBox="0 0 960 1066" fill="none" xmlns="http://www.w3.org/2000/svg">
<path d="M61.5505 81.9854C130.468 0.315814 249.35 -21.4212 344.034 23.3896L346.266 24.46C399.392 50.3326 438.516 90.1784 463.651 144.012V144.013C479.276 177.578 487.867 195.978 489.416 199.206V199.207C508.191 238.855 537.8 262.165 578.219 269.076L580.151 269.393C608.566 273.889 627.222 277.449 636.155 280.069C643.66 298.783 644.781 316.498 640.514 333.229C636.229 350.035 626.501 365.882 612.288 380.77C592.078 401.94 566.028 412.204 536.948 409.709V409.708C529.819 409.106 522.767 408.456 515.794 407.761C513.438 401.587 509.696 396.707 504.566 393.14C499.36 389.519 492.75 387.267 484.762 386.359C460.906 383.617 442.602 390.517 426.597 401.069C418.602 406.341 411.178 412.525 403.927 418.868C396.667 425.219 389.593 431.717 382.258 437.655C305.786 499.593 194.239 498.407 113.729 448.329C-14.9473 368.37 -34.2276 195.532 61.5505 81.9854Z" fill="#F59E0B" stroke="white"/>
<path d="M637.249 280.112C672.438 277.83 705.814 279.291 737.376 284.493C878.02 307.66 981.266 429.831 955.56 573.957C939.044 666.645 875.78 739.206 787.704 770.7C748.989 784.542 703.805 789.539 652.139 785.672C662.448 750.589 655.078 719.28 630.049 691.809L629.052 690.727C608.067 668.094 582.971 651.444 553.77 640.779H553.769C539.263 635.498 525.009 630.09 511.007 624.558C516.977 608.179 520.838 589.36 522.593 568.103C524.717 542.299 525.137 522.244 523.847 507.953C521.5 482.134 518.574 456.363 515.07 430.641C515.502 419.453 515.447 416.621 515.418 415.196C515.392 413.861 515.387 413.851 515.886 408.775C522.802 409.464 529.794 410.107 536.863 410.704V410.705C566.255 413.227 592.599 402.842 613.011 381.46C627.309 366.485 637.145 350.491 641.484 333.477C645.775 316.648 644.678 298.855 637.249 280.112Z" fill="#10B981" stroke="white"/>
<path d="M154.852 599.306C212.888 576.13 271.669 575.086 331.218 596.177C344.279 600.795 356.885 607.155 369.384 613.823C381.872 620.485 394.265 627.462 406.853 633.284C432.043 644.933 458.124 652.007 487.7 642.788H487.701C496.778 639.955 504.394 634.165 510.552 625.455C524.591 631.002 538.882 636.424 553.427 641.718C582.941 652.497 608.233 669.418 629.31 692.483V692.484C654.185 719.786 661.434 750.841 651.085 785.715C637.037 789.467 621.422 791.331 605.5 793.138C589.49 794.955 573.172 796.716 557.91 800.294C542.645 803.873 528.401 809.278 516.539 818.404C504.668 827.536 495.208 840.376 489.486 858.779C480.161 888.748 471.841 910.924 464.527 925.327V925.328C432.002 989.703 383.489 1032.29 318.978 1053.12C168.99 1101.56 12.2889 1001.4 1.12012 842.682C-6.48674 734.838 56.4844 638.595 154.852 599.306Z" fill="#FF6B6B" stroke="white"/>
</svg>
